<svg xmlns="http://www.w3.org/2000/svg" viewBox="0 0 20.359 17.22588"><title>Fallout</title><polygon points="20.359 2.552 18.172 2.552 14.111 8.329 13.017 9.891 14.111 11.453 15.511 13.454 13.801 13.454 11.307 9.891 14.914 4.739 12.727 4.739 10.213 8.329 7.699 4.739 7.63 4.739 5.512 4.739 3.802 4.739 1.615 4.739 5.222 9.891 0 17.226 2.187 17.226 6.316 11.453 7.41 9.891 6.316 8.329 4.915 6.329 6.625 6.329 9.12 9.891 5.512 15.043 7.699 15.043 10.213 11.453 12.727 15.043 13.63 15.043 14.914 15.043 16.624 15.043 17.458 15.043 18.812 15.043 15.204 9.891 20.359 2.552" fill="#009eff"/><polygon points="7.699 2.279 10.213 5.869 12.727 2.279 11.131 0 10.213 1.311 9.295 0 7.699 2.279" fill="#009eff"/></svg>