<svg xmlns="http://www.w3.org/2000/svg" width="20.35913" height="14.67383" viewBox="0 0 20.35913 14.67383"><title>Element 1</title><polygon points="20.359 0 18.172 0 14.111 5.777 13.017 7.339 14.111 8.901 15.511 10.902 13.801 10.902 11.307 7.339 14.914 2.187 12.727 2.187 10.213 5.777 7.699 2.187 7.63 2.187 5.512 2.187 3.802 2.187 1.615 2.187 5.222 7.339 0 14.674 2.187 14.674 6.316 8.901 7.41 7.339 6.316 5.777 4.915 3.777 6.625 3.777 9.12 7.339 5.512 12.491 7.699 12.491 10.213 8.901 12.727 12.491 13.63 12.491 14.914 12.491 16.624 12.491 17.458 12.491 18.812 12.491 15.204 7.339 20.359 0" fill="#ff002b"/></svg>