<svg xmlns="http://www.w3.org/2000/svg" viewBox="0 0 20.359 18.53697"><title>Industry</title><polygon points="20.359 3.863 18.172 3.863 14.111 9.64 13.017 11.202 14.111 12.764 15.511 14.765 13.801 14.765 11.307 11.202 14.914 6.05 12.727 6.05 10.213 9.64 7.699 6.05 7.63 6.05 5.512 6.05 3.802 6.05 1.615 6.05 5.222 11.202 0 18.537 2.187 18.537 6.316 12.764 7.41 11.202 6.316 9.64 4.915 7.64 6.625 7.64 9.12 11.202 5.512 16.354 7.699 16.354 10.213 12.764 12.727 16.354 13.63 16.354 14.914 16.354 16.624 16.354 17.458 16.354 18.812 16.354 15.204 11.202 20.359 3.863" fill="#ff0"/><polygon points="11.9 2.416 11.9 0 10.979 0 10.979 2.416 9.447 2.416 9.447 0 8.525 0 8.525 2.416 7.699 2.416 7.699 3.59 10.213 7.18 12.727 3.59 12.727 2.416 11.9 2.416" fill="#ff0"/></svg>