<svg xmlns="http://www.w3.org/2000/svg" viewBox="0 0 469.01465 88.06055"><path d="M159.50244,72.94629l28.479-28.10449-29.978-30.22754L172.61768,0l29.978,30.22754L233.44824,0,248.0625,14.48926,216.96,45.0918l28.35449,28.22949L230.4502,88.06055l-27.9795-28.4795-28.354,28.2295Zm95.30127,0L283.28223,44.8418,253.30469,14.61426,267.919,0l29.97753,30.22754L328.749,0l14.61426,14.48926L312.26074,45.0918l28.35449,28.22949L325.751,88.06055l-27.9795-28.4795L269.418,87.81055Z" fill="#ff6008"/><path d="M104.67334,86.43652H84.06348V43.09326L63.70313,86.43652H40.84473L20.48486,43.09326V86.43652H0V1.499H22.7334l29.603,62.32911L81.81494,1.499h22.8584Zm39.34229,0H123.53076V1.499h20.48487Zm230.06933,0H353.60059V1.499H374.085Zm94.92969-65.95166H438.91113V86.43652H418.17676V20.48486H388.07422V1.499h80.94043Z" fill="#130933"/></svg>